<svg width="631" height="851" viewBox="0 0 631 851" fill="none" xmlns="http://www.w3.org/2000/svg">
<rect width="631" height="851" fill="white"/>
<path d="M167.52 190.184H590.437V663.114H167.52V190.184Z" fill="black"/>
<path d="M185.984 74.0766C227.924 23.8171 322.947 65.1352 417.317 291.433C511.687 517.705 415.731 764.206 200.112 795.201C131.549 805.055 -33.5985 725.156 79.5848 475.84C187.033 239.14 102.921 173.631 185.984 74.0766Z" fill="black"/>
<path d="M368.896 455.011H324.602V492.914H368.896V455.011ZM368.593 190.184C384.679 218.729 401.021 252.305 417.317 291.433C472.708 424.251 462.52 564.028 401.068 663.114H368.896V511.84H324.602V663.114H263.686L309.029 511.84H263.942L238.927 611.811L213.633 511.84H167.52L212.607 663.114H167.52V190.184H368.593Z" fill="white"/>
</svg>
