<svg width="631" height="851" viewBox="0 0 631 851" fill="none" xmlns="http://www.w3.org/2000/svg">
<rect width="631" height="851" fill="white"/>
<path d="M166.157 208.603H591.203V644.515H166.157V208.603Z" fill="black"/>
<path d="M184.714 101.583C226.865 55.2579 322.366 93.3419 417.211 301.927C512.056 510.488 415.618 737.695 198.913 766.264C130.005 775.346 -35.9741 701.701 77.7791 471.9C185.769 253.727 101.233 193.346 184.714 101.583Z" fill="black"/>
<path d="M368.547 452.701H324.029V487.638H368.547V452.701ZM368.242 208.603C384.409 234.913 400.833 265.861 417.211 301.927C472.881 424.348 462.642 553.185 400.88 644.515H368.547V505.082H324.029V644.515H262.807L308.378 505.082H263.064L237.924 597.228L212.502 505.082H166.157L211.471 644.515H166.157V208.603H368.242Z" fill="white"/>
</svg>
